<?xml version="1.0" standalone="no"?>
<!DOCTYPE svg PUBLIC "-//W3C//DTD SVG 1.1//EN" "http://www.w3.org/Graphics/SVG/1.1/DTD/svg11.dtd" >
<!--
2013-9-30: Created.
-->
<svg>
<metadata>
Created by iconfont
</metadata>
<defs>

<font id="iconfont" horiz-adv-x="1024" >
  <font-face
    font-family="iconfont"
    font-weight="500"
    font-stretch="normal"
    units-per-em="1024"
    ascent="896"
    descent="-128"
  />
    <missing-glyph />
    
    <glyph glyph-name="x" unicode="x" horiz-adv-x="1001"
d="M281 543q-27 -1 -53 -1h-83q-18 0 -36.5 -6t-32.5 -18.5t-23 -32t-9 -45.5v-76h912v41q0 16 -0.5 30t-0.5 18q0 13 -5 29t-17 29.5t-31.5 22.5t-49.5 9h-133v-97h-438v97zM955 310v-52q0 -23 0.5 -52t0.5 -58t-10.5 -47.5t-26 -30t-33 -16t-31.5 -4.5q-14 -1 -29.5 -0.5
t-29.5 0.5h-32l-45 128h-439l-44 -128h-29h-34q-20 0 -45 1q-25 0 -41 9.5t-25.5 23t-13.5 29.5t-4 30v167h911zM163 247q-12 0 -21 -8.5t-9 -21.5t9 -21.5t21 -8.5q13 0 22 8.5t9 21.5t-9 21.5t-22 8.5zM316 123q-8 -26 -14 -48q-5 -19 -10.5 -37t-7.5 -25t-3 -15t1 -14.5
t9.5 -10.5t21.5 -4h37h67h81h80h64h36q23 0 34 12t2 38q-5 13 -9.5 30.5t-9.5 34.5q-5 19 -11 39h-368zM336 498v228q0 11 2.5 23t10 21.5t20.5 15.5t34 6h188q31 0 51.5 -14.5t20.5 -52.5v-227h-327z" />
    

    
    <glyph glyph-name="cinema-ticket" unicode="&#58907;" d="M581.963956 379.928265c-19.072381 0-34.539654-15.517415-34.539654-34.643008 0-19.138896 15.467273-34.660404 34.539654-34.660404 19.075451 0 34.508955 15.521508 34.508955 34.660404C616.472911 364.410849 601.039407 379.928265 581.963956 379.928265zM960.610786 599.8163010000001L823.084573 483.400894l-69.015863 0-3.573385 20.980847c0 0-7.398504 54.262858-46.402843 52.248991l-2.813069 11.135618c0 0 15.956414 192.107319-160.967088 192.107319 0 0-155.7646 9.331529-160.107511-150.97041 0.055259-4.383844-0.097214-6.895037-0.097214-6.895037 0 2.334161 0.035816 4.629437 0.097214 6.895037-0.39295 30.980595-11.220552 155.579381-160.338778 149.585877 0 0-155.723667 9.757225-155.723667-171.358763 0 0-0.169869-71.335698 68.778456-103.729479l0-310.570361c0 0-3.266393-71.172993 69.018933-69.01484l483.111043 0c0 0 69.016887 3.690042 69.016887 69.01484l0 69.013817 69.015863 0L960.879915 103.94769899999994 960.610786 599.8163010000001zM197.16194 696.635393c0 0 100.284007 29.831422 126.378316-76.592422 0 0 7.809873-25.219381 10.744715-43.490513 0 0 50.085722-41.927925 95.167476 8.698103 0 0-3.41068 121.261785 115.6336 115.234511 0 0 93.813642-5.653767 79.316463-112.958678l0-34.509978c0 0-102.340853 12.535501-150.947897-31.210839 0 0-26.094308-27.629267-64.46829-3.894703 0 0-59.309804 47.447639-138.031726 34.507932 0 0-48.527227-3.234671-69.01484-34.507932C117.825011 517.9108719999999 96.36628 672.74324 197.16194 696.635393zM306.001811 207.06933500000002c-76.464509 0-138.436956 60.97677-138.436956 137.727805 0 76.733639 61.97347 138.943492 138.436956 138.943492 76.463486 0 137.258107-62.209854 137.258107-138.943492C443.259918 268.045081 382.464273 207.06933500000002 306.001811 207.06933500000002zM582.236156 207.06933500000002c-76.464509 0-138.436956 60.97677-138.436956 137.727805 0 76.733639 61.972447 138.943492 138.436956 138.943492 76.496232 0 137.255037-62.209854 137.255037-138.943492C719.49017 268.045081 658.731364 207.06933500000002 582.236156 207.06933500000002zM892.100436 276.35535100000004l-93.746104 34.506908L798.354332 414.386054l93.746104 34.506908L892.100436 276.35535100000004zM305.665143 379.928265c-19.073404 0-34.541701-15.517415-34.541701-34.643008 0-19.138896 15.468296-34.660404 34.541701-34.660404 19.039635 0 34.540677 15.521508 34.540677 34.660404C340.20582 364.410849 324.704778 379.928265 305.665143 379.928265z"  horiz-adv-x="1024" />

    
    <glyph glyph-name="follow" unicode="&#58913;" d="M705.403848 831.53171c-76.854389 0-148.311861-38.554084-195.34506-102.123912-47.007617 63.587224-118.448716 102.123912-195.344037 102.123912-138.54031 0-251.251348-123.228579-251.251348-274.711665 0-90.369194 40.368406-153.767106 72.820516-204.702172 94.311992-147.95268 331.443761-332.071048 341.487511-339.834872 9.676383-7.479345 20.989033-11.222599 32.275077-11.222599 11.31265 0 22.607904 3.744277 32.270984 11.222599 10.057053 7.763824 247.205195 191.882192 341.488535 339.834872 32.466436 50.939159 72.849168 114.332978 72.849168 204.702172C956.655196 708.30313 843.939041 831.53171 705.403848 831.53171L705.403848 831.53171zM837.929164 387.082198c-89.77056-140.875494-327.883679-324.878229-327.883679-324.878229s-238.086513 184.002734-327.887772 324.878229c-33.120328 52.005444-62.774719 101.438297-62.774719 169.736822 0 117.939109 87.443561 213.58447 195.331757 213.58447 79.730902 0 148.175761-52.308343 178.538279-127.194914l0 0.37146 0.080841 0c2.26253-7.806803 8.857738-13.501502 16.711614-13.501502 7.880481 0 14.474666 5.694699 16.720823 13.501502l0.230244 0c30.435173 74.66349 98.785887 126.823454 178.406273 126.823454 107.86159 0 195.331757-95.64536 195.331757-213.58447C900.734582 488.520495 871.075075 439.088666 837.929164 387.082198L837.929164 387.082198zM837.929164 387.082198"  horiz-adv-x="1024" />

    
    <glyph glyph-name="company" unicode="&#59088;" d="M84.48 458.279385l0-524.8-20.48 0L64-128l83.219692 0L147.219692 412.790154l326.459077 113.309538 0-647.758769 232.920615 0 0 61.558154-48.009846 0L658.589538 540.120615l-122.840615 72.349538-135.089231-46.749538L400.659692 653.430154l326.419692 147.849846 0-925.380923 232.96 0 0 61.952-47.970462 0L912.068923 819.830154 787.180308 896 340.519385 690.569846l0-145.289846L84.48 458.279385zM184.989538 377.619692l0-94.129231 241.270154 69.12 0 106.889846L184.989538 377.619692zM184.989538 244.49969199999998l0-92.790154 241.270154 44.819692L426.259692 305.230769 184.989538 244.49969199999998zM184.989538 109.41046200000005l0-92.199385 241.270154 20.519385 0 108.859077L184.989538 109.41046200000005zM184.32-27.49046199999998l0-92.199385 241.309538 0 0 108.819692L184.32-27.49046199999998z"  horiz-adv-x="1024" />

    
    <glyph glyph-name="air-ticket" unicode="&#58897;" d="M849.338819 640.494304c12.551552 21.137603 10.261402 50.851195-7.036476 71.606435-10.11047 12.13196-25.429119 19.090958-42.029689 19.090958-11.716392 0-22.795849-3.467424-31.854822-9.770368l-13.835485 13.833473c14.396955 9.800555 31.086072 15.091244 48.114284 15.091244 20.882024 0 39.655017-8.000432 52.861617-22.526183l0.20225-0.222374 0.212312-0.212312c27.670971-27.670971 30.4109-70.97755 8.222806-101.745657L849.338819 640.494304zM831.941325-127.99899400000004c-7.414814 0-14.655552 1.043447-21.517953 3.103174l-0.765731 0.229418-0.78988 0.132821c-15.357892 2.557804-29.361416 10.067202-41.620159 22.323933-12.886623 12.890648-20.995727 24.543648-26.286416 37.774397l-0.467891 1.170231-0.689259 1.053509c-42.90208 65.614412-97.996492 163.47909-138.226059 234.934593-11.310887 20.092144-21.080249 37.444358-29.437888 52.072742l-7.285012 12.749777-138.947517-109.697791-3.430194-103.040658 0-0.210299c0-40.412698 0-72.330912-25.387864-97.715757-17.619868-17.622887-40.745756-27.328857-65.119354-27.328857-5.789773 0-11.572503 0.569519-17.190213 1.693463-14.605242 2.925073-33.97794 11.664069-44.317827 24.591947l-0.273691 0.332052c-19.141268 22.336008-28.662095 48.278298-26.121397 71.175775l0.146908 1.326194-0.132821 1.326194c-1.408704 14.109177-2.210659 27.919507-2.917023 40.102784-0.937794 16.143748-1.746793 30.082873-3.655587 41.523562l-1.761886 10.561255-13.160314 0c-15.569198 1.898732-34.027245 2.676538-57.292997 3.659612-16.018977 0.675172-34.145978 1.43889-54.920337 2.726848-13.343445 2.886837-27.210123 11.450751-41.22874 25.464337l-0.177094 0.1781-0.185144 0.171057c-20.266219 18.709601-32.181842 44.052186-32.689982 69.527591-0.432673 21.661842 7.379596 41.318294 22.603661 56.920697 28.770766 20.030764 45.128838 26.026812 93.691895 26.149571l12.920834-3.227945 98.370805 0 109.343603 145.798849-12.434831 7.105905c-15.036909 8.592088-32.999897 18.701551-53.799411 30.407882C235.261614 497.322688 137.31342 552.4493 67.135813 597.557007c-26.966619 17.991162-42.321492 36.135269-42.473431 36.315382l-0.356201 0.423617-0.403493 0.407518c-10.47472 10.504907-22.152876 26.677835-22.152876 33.076369l0 1.293995-0.262623 1.266827c-6.009129 29.040432-1.285945 53.308377 14.036729 72.125644C35.22263 766.662863 66.499884 774.729706 73.136892 774.729706l0.700327 0 0.695296 0.077479c7.211558 0.800949 13.448092 1.189349 19.066808 1.189349 14.927231 0 26.000651-2.768103 44.342982-7.354441l0.238473-0.059367 425.127741-88.986824 75.36365 102.767974c4.55917 4.62558 8.371726 9.135445 12.395589 13.896865 4.639667 5.490927 9.438317 11.168004 15.994827 17.722502C708.125302 855.048975 769.142308 879.564449 830.282073 879.564449c51.426751 0 97.30019-17.550439 129.167086-49.420354 35.187413-35.188419 52.108966-85.172255 47.646393-140.745627-4.243218-52.854573-27.561293-105.824861-63.985347-145.373219-6.771841-6.772847-6.799009-6.793978-9.774393-9.252166-2.714774-2.240846-7.247782-5.984979-18.381574-15.726167l-116.132549-95.641944 124.770923-436.714332c2.270026-25.453268-4.097316-60.979776-28.781835-85.66832l-0.261616-0.261616-0.245517-0.278722C878.213226-117.619864 855.482781-127.99899400000004 831.941325-127.99899400000004M768.625112-56.87151800000004c1.674345-9.808605 9.396056-17.530315 16.301724-24.434977 10.054122-10.054122 25.090024-15.820752 41.257921-15.820752 16.164878 0 31.201787 5.76663 41.257921 15.821758 14.892013 14.892013 20.708955 35.016356 16.386246 56.66713l-0.105653 0.530276L762.008229 395.142345 590.066853 260.57288000000005 768.625112-56.87151800000004zM240.221258 125.31113600000003c5.943725 0 20.605314-0.937794 28.329037-9.624467 4.850973-5.455709 6.648077-13.856616 5.339994-24.97129l-0.087541-0.736551 0-0.741582c0-64.385821 3.139397-105.891272 3.273224-107.62599l0.057354-0.759694 0.149926-0.747619c3.794445-18.987317 8.46128-24.394728 16.383227-32.317682l0.405506-0.405506 0.441729-0.368275c11.812989-9.846841 25.227876-15.050996 38.794701-15.050996 13.567832 0 26.982718 5.204155 38.795707 15.050996l0.440723 0.367269 0.403493 0.403493c9.170663 9.171669 9.78043 12.211451 13.158301 29.085712l0.245517 1.227585L386.352158 144.449386 899.199896 541.924268l0.568513 0.568513c0.391418 0.392425 1.508319 1.249722 2.403853 1.93898 3.354728 2.57491 8.257018 6.340174 11.793871 12.273836 60.426357 61.7767 79.661204 178.055151 14.882957 242.837422-25.850724 25.850724-63.108932 40.085678-104.909204 40.085678-51.170166 0-104.511748-21.551158-139.205108-56.245525l-1.453984-1.450965-0.91767-1.838359c-0.698315-1.396629-2.273044-2.971359-4.09631-4.794625-2.585978-2.586984-5.756568-5.757574-8.220794-10.20606l-393.129031-520.998097L115.150482 244.09506799999997c-11.692243 0-20.517773-8.82553-28.304888-16.611639-10.078271-10.075252-15.845907-25.115179-15.845907-41.280058 0-16.167897 5.767637-31.206818 15.825783-41.260939l1.447946-1.448953 1.830309-0.915658c1.450965-0.725483 3.22392-1.9098 5.103533-3.161534 5.17095-3.449312 11.583572-7.727748 19.534699-7.87063l120.354637-6.505194 1.036404 0.115715C236.137022 125.15315999999996 237.724833 125.31113600000003 240.221258 125.31113600000003M83.745439 746.279923c-15.689944 0-29.518386-5.190068-38.93859-14.61631-11.764691-11.764691-18.244729-26.990768-18.244729-42.873905 0-15.882131 6.481045-31.109215 18.247748-42.876924l1.154131-1.154131L383.444191 447.611537 538.052471 650.0865719999999l-439.811468 94.737355C93.406129 745.789895 88.528995 746.279923 83.745439 746.279923"  horiz-adv-x="1024" />

    
    <glyph glyph-name="gift-cards" unicode="&#58960;" d="M113.777778 577.365333l796.444444 0 0-42.666667-796.444444 0 0 42.666667ZM947.484444 776.533333L76.515556 776.533333C34.247111 776.533333 0 742.286222 0 700.017778l0-645.632c0-42.268444 34.247111-76.515556 76.515556-76.515556l870.912 0c42.268444 0 76.515556 34.247111 76.515556 76.515556L1023.943111 340.99199999999996 1023.943111 346.510222 1023.943111 700.017778C1024 742.286222 989.752889 776.533333 947.484444 776.533333zM981.333333 340.99199999999996l0-263.054222c0-31.744-25.713778-57.457778-57.457778-57.457778L100.124444 20.480000000000018c-31.744 0-57.457778 25.713778-57.457778 57.457778L42.666667 676.408889c0 31.744 25.713778 57.457778 57.457778 57.457778l823.751111 0c31.744 0 57.457778-25.713778 57.457778-57.457778l0-329.898667L981.333333 340.99199999999996zM884.224 422.058667l-92.216889-156.899556 72.647111 0 0-34.645333-84.650667 0 0-47.786667 84.650667 0 0-35.100444-84.650667 0 0-69.575111-43.576889 0 0 69.575111-87.779556 0 0 35.100444 87.779556 0 0 47.786667-87.779556 0 0 34.645333 74.865778 0-91.306667 156.899556 49.095111 0c42.666667-77.937778 68.608-127.374222 77.767111-148.252444l0.910222 0c3.128889 8.590222 11.605333 25.941333 25.543111 52.053333l52.224 96.199111L884.224 422.058667zM113.777778 203.83288900000002l111.388444 0 0-42.666667-111.388444 0 0 42.666667Z"  horiz-adv-x="1024" />

    
    <glyph glyph-name="triangle-up" unicode="&#58885;" d="M870.731 223.452l-362.024 362.024-360.927-360.927z"  horiz-adv-x="1024" />

    
    <glyph glyph-name="funding" unicode="&#58881;" d="M511.68 729.664c97.6 0 181.76-72.128 196.48-167.488 15.488 4.8 31.232 7.168 47.04 7.168 43.648 0 83.84-17.728 112-46.848 28.8-28.032 46.72-67.328 46.72-111.104 0-41.408-16.512-79.36-42.624-107.712l37.504-37.632c16.832-16.768 29.184-35.2 38.144-56.064l0 0C955.2 189.76 960 167.93600000000004 960 144.32000000000005l0-47.232c0-11.968-4.48-25.28-11.712-35.2-7.872-10.944-19.264-18.432-33.664-20.16-1.344 0-2.752 0-3.456 0l-36.416 0 0-13.376c0-15.744-13.056-28.352-28.8-28.352l-1.472 0L511.68 0 178.048 0l-0.64 0c-15.872 0-28.864 12.672-28.864 28.352l0 13.376L112.128 41.72799999999995c-1.344 0-2.048 0-3.392 0-14.464 1.728-26.112 9.28-34.368 20.16C67.52 71.87199999999996 64 85.18399999999997 64 97.15200000000004l0 47.232c0 23.552 3.776 45.504 12.416 65.6l0.64 0c15.488 38.656 46.336 65.28 74.944 93.632C125.44 332.03200000000004 108.992 369.98400000000004 108.992 411.328c0 43.776 18.24 83.072 46.72 111.104 29.184 29.12 68.352 46.912 112.32 46.912 15.808 0 31.616-2.432 46.336-7.168C329.536 657.472 413.696 729.664 511.68 729.664L511.68 729.664zM511.68 58.176000000000045L511.68 58.176000000000045l89.6 0c0 42.752 0 86.848 0 130.624 0 9.216 7.872 17.408 17.216 17.408 9.92 0 17.536-8.256 17.536-17.408l0-76.608 75.264 0c0.704 1.344 1.344 4.48 1.344 7.168l0 61.184c0 83.072-54.976 121.024-109.248 175.04C575.872 341.24800000000005 544.64 333.05600000000004 511.68 333.05600000000004c-33.408 0-64.576 8.192-92.096 22.528-53.952-54.016-108.864-91.968-108.864-175.04l0-61.184c0-2.752 0.64-5.824 0.64-7.168l75.648 0L387.008 188.79999999999995c0 9.216 7.552 17.408 17.152 17.408 9.92 0 17.536-8.256 17.536-17.408 0-43.776 0-87.808 0-130.624L511.68 58.176000000000045 511.68 58.176000000000045zM511.68 391.168L511.68 391.168c76.608 0 140.864 61.824 140.864 140.16 0 77.568-62.848 140.16-140.864 140.16s-141.248-62.592-141.248-140.16C370.432 452.992 435.008 391.168 511.68 391.168L511.68 391.168zM206.848 58.176000000000045L206.848 58.176000000000045l84.544 0c-11.072 3.072-19.968 10.624-26.432 19.456-8.256 11.968-12.736 27.008-12.736 41.728l0 61.184c0 25.664 4.096 50.304 12.032 72.448C240.896 254.39999999999998 219.264 259.20000000000005 199.36 268.79999999999995c-24.384-23.936-56.384-48.576-69.376-80-5.504-13.76-8.192-28.416-8.192-44.48l0-45.12 50.432 0 0 51.648c0 9.216 7.872 17.088 17.152 17.088 9.6 0 17.536-7.872 17.536-17.088L206.912 58.176000000000045 206.848 58.176000000000045zM314.816 499.84L314.816 499.84C309.952 502.592 303.808 505.024 298.304 506.752c-9.6 3.072-19.904 4.48-30.208 4.48-27.776 0-53.312-10.624-71.104-29.76C178.752 463.936 167.68 439.04 167.68 411.328c0-27.648 11.072-52.992 29.184-70.464 17.92-18.368 43.328-28.992 71.104-28.992 11.008 0 21.632 1.024 32.32 4.48 20.992 26.24 47.744 49.536 71.808 73.792C342.272 420.16 321.984 458.112 314.816 499.84L314.816 499.84zM816.064 58.176000000000045L816.064 58.176000000000045l0 92.608c0 9.216 7.872 17.088 17.152 17.088 9.92 0 17.856-7.872 17.856-17.088l0-51.648 50.496 0 0 45.12c0 16.128-3.072 30.784-8.256 44.48-5.44 12.992-14.464 25.28-25.728 36.544l-43.648 43.456c-19.968-9.6-41.92-14.4-65.28-15.808 8.192-22.144 12.416-46.848 12.416-72.448l0-61.184c0-14.72-4.8-29.696-13.056-41.728-6.528-8.896-15.488-16.448-26.112-19.456L816.064 58.176000000000045 816.064 58.176000000000045 816.064 58.176000000000045zM708.16 499.84L708.16 499.84c-7.872-44.096-25.792-78.656-57.088-109.76 23.68-24.256 50.112-47.552 71.744-73.856 2.752-0.64 9.6-3.072 12.032-3.072 6.144-0.64 13.44-1.344 20.288-1.344 27.52 0 52.928 10.624 71.104 29.056 18.176 17.408 29.888 42.752 29.888 70.464 0 27.648-11.712 52.608-29.888 70.08-18.24 19.136-43.648 29.76-71.104 29.76-11.008 0-20.928-1.408-30.208-4.48C718.784 505.024 714.048 502.592 708.16 499.84L708.16 499.84z"  horiz-adv-x="1024" />

    
    <glyph glyph-name="phone-bill" unicode="&#58882;" d="M827.203 724.104c0 37.08-37.924 84.105-87.301 84.105h-423.452c-58.413 0-89.033-52.843-89.033-84.46v-733.202c0-41.053 44.627-82.661 85.836-82.661h427.715c80.906 0 86.259 85.301 86.259 85.301s0.908 567.416-0.024 730.917v0zM527.511-58.76400000000001c-20.715 0-37.524 16.784-37.524 37.524 0 20.715 16.809 37.522 37.524 37.522s37.523-16.807 37.523-37.522c0-20.739-16.808-37.524-37.523-37.524v0zM763.791 35.75300000000004h-472.564v676.495h472.565l-0.001-676.495zM689.08 534.582l-32.305 31.195-126.2-130.797-132.33 137.147-32.305-31.194 109.437-113.412h-92.719v-32.77h119.54v-63.634l-119.541-0.133v-31.749h119.541v-123.803h50.622v123.802l119.541-0.023-0.044 31.774h-119.497v63.765h119.497v32.769h-86.525l103.287 107.063z"  horiz-adv-x="1024" />

    
    <glyph glyph-name="fuel" unicode="&#58889;" d="M878.229514 250.19036600000004c-40.072094 279.906746-298.66716 645.809634-375.45455 645.809634-46.917869 0-327.58588-367.1461-375.462032-645.809634-46.003852-267.897962 168.10054-378.190366 375.462032-378.190366S917.497324-24.091996999999992 878.229514 250.19036600000004zM683.499037 237.259459L572.745883 237.259459l0-110.774975-139.920641 0L432.825243 237.259459 322.072089 237.259459 322.072089 377.158278l110.753154 0L432.825243 487.925772l139.920641 0 0-110.767494L683.499037 377.158278 683.499037 237.259459z"  horiz-adv-x="1024" />

    
    <glyph glyph-name="consult" unicode="&#58880;" d="M880.832811 332.920648c0.208754 8.463766 0.233314 17.073864 0.057305 25.704428 2.302439 116.747981-32.43983 215.163431-100.492762 284.627503-32.458249 33.124422-71.935356 58.550511-117.17163 75.869968-7.017834 63.064314-75.508741 112.715131-158.700465 112.715131-83.187631 0-151.673421-49.650817-158.696372-112.715131-45.231157-17.319457-84.704171-42.745547-117.157303-75.869968-68.072375-69.468165-102.831017-167.685094-100.512205-284.08208-0.204661-11.000542-0.137123-21.326724 0.204661-31.41857-17.638729-17.753339-31.456433-44.566008-21.35947-82.190931 7.505951-27.962865 28.190039-48.910966 53.571103-58.081837 12.899798-7.952112 28.0478-12.583596 44.255946-12.692067C237.195725 33.29761599999995 354.671277-62.757067000000006 508.074086-62.757067000000006c153.122423 0 270.626627 96.29516 302.803467 237.867526 0.989537-0.215918 2.02103-0.339738 3.075035-0.339738 20.209274 0 38.798655 7.060813 53.461609 18.811438 19.163455 10.875698 34.154891 29.074176 40.299845 51.977815C918.84659 287.033551 900.914172 315.37811 880.832811 332.920648L880.832811 332.920648 880.832811 332.920648zM370.669646 501.716029c2.438539-4.077875 60.903092-100.475366 171.047678-142.260028 30.390147-11.529591 61.524239-18.123776 91.636047-24.495904 60.396555-12.795421 117.455085-24.880667 156.327418-75.348082 0.405229-0.523933 0.856507-1.011027 1.321088-1.467421-0.061398-2.544963-0.061398-2.550079-0.061398-2.550079 0-18.814508-1.419326-36.995589-4.15974-54.469566-49.973158-79.843466-132.889613-132.167159-235.608066-143.438876-7.65433 10.107195-23.248494 17.071817-41.36306 17.071817-25.686009 0-46.531779-13.906731-46.531779-31.015388 0-17.150612 20.845771-31.023574 46.531779-31.023574 23.027459 0 41.996486 11.20418 45.687552 25.858948 33.127492 3.805676 64.716954 11.719926 94.329389 23.681352 42.299385 17.081027 79.577407 41.965787 110.781082 73.968665 4.997827 5.112438 9.79304 10.411117 14.429641 15.84692-37.19104-113.27488-136.614447-186.092325-266.414699-186.103582l0 0c-0.234337 0.01228-0.870834 0.01228-1.102101 0.01228-166.5482 0-282.868439 119.092375-282.868439 289.881157l-0.312108 16.253172c-0.204661 6.964622 0.87288 26.527167 2.033309 45.287439 90.793866 32.121582 128.493489 124.408451 130.143059 128.555911L370.669646 501.716029 370.669646 501.716029zM430.555571 242.92189099999996c0-29.735232-24.110117-53.847395-53.847395-53.847395-29.735232 0-53.844326 24.112164-53.844326 53.847395s24.109094 53.844326 53.844326 53.844326C406.446477 296.766217 430.555571 272.65609900000004 430.555571 242.92189099999996L430.555571 242.92189099999996zM681.291173 242.92189099999996c0-29.263487-23.720238-52.987818-52.984748-52.987818-29.260417 0-52.979632 23.725354-52.979632 52.987818 0 29.261441 23.720238 52.983725 52.979632 52.983725C657.571958 295.905616 681.291173 272.18230800000003 681.291173 242.92189099999996L681.291173 242.92189099999996zM681.291173 242.92189099999996"  horiz-adv-x="1024" />

    
    <glyph glyph-name="game" unicode="&#58982;" d="M906.08 30.519999999999982c-65.5 0-102.8 39.2-146.1 84.5-15.3 16-31.2 32.7-49.6 49.2-48.4 43.2-97.2 49.2-142.6 49.2-8.1 0-16.1-0.2-23.7-0.4-7.3-0.2-14.4-0.3-21.1-0.3l-21.9 0c-6.7 0-13.8 0.2-21.1 0.3-7.6 0.2-15.5 0.4-23.7 0.4-45.5 0-94.2-6-142.6-49.2-18.5-16.5-34.3-33.1-49.7-49.2-43.2-45.3-80.6-84.5-146.1-84.5-25.5 0-46.8 9.4-63.4 27.9-42.4 47.4-52.7 154.6-32.5 337.4 27.9 251.9 143 341.6 241.5 341.6 35.5 0 59.8-14.6 85.6-30.1 35.5-21.3 75.8-45.5 162.9-45.5 87.1 0 127.4 24.2 162.9 45.5 25.8 15.5 50.1 30.1 85.6 30.1 98.5 0 213.7-89.7 241.5-341.6 20.2-182.9 9.9-290.1-32.5-337.4C952.98 39.91999999999996 931.58 30.519999999999982 906.08 30.519999999999982zM567.68 245.62c49.4 0 107.5-6.8 164.1-57.4 19.5-17.4 35.8-34.5 51.5-51 41.3-43.3 71.1-74.5 122.8-74.5 16.2 0 29 5.6 39.4 17.1 34.9 38.9 43.1 144 24.5 312.4-25.5 230.7-124.9 312.9-209.5 312.9-26.6 0-45.3-11.2-69-25.5-37.2-22.3-83.4-50.1-179.5-50.1-96.1 0-142.3 27.8-179.5 50.1-23.7 14.2-42.4 25.5-69 25.5-84.5 0-184-82.2-209.5-312.9-18.6-168.3-10.4-273.4 24.5-312.4 10.3-11.5 23.2-17.1 39.4-17.1 51.7 0 81.5 31.3 122.8 74.5 15.8 16.5 32 33.6 51.5 51 66.3 59.2 134.6 58.3 188.6 57 7-0.2 13.8-0.3 20.3-0.3l21.9 0c6.5 0 13.3 0.2 20.3 0.3C551.18 245.41999999999996 559.28 245.62 567.68 245.62zM906.08 20.32000000000005c-69.9 0-110.5 42.6-153.5 87.7-15.4 16.1-31 32.5-49.1 48.6-45.9 40.9-92.4 46.6-135.8 46.6-8.1 0-15.9-0.2-23.4-0.4-7.4-0.2-14.5-0.4-21.3-0.4l-21.9 0c-6.8 0-14 0.2-21.4 0.4-7.5 0.2-15.3 0.4-23.4 0.4-43.4 0-89.9-5.6-135.8-46.6-18.1-16.1-33.7-32.5-48.8-48.3-43.3-45.4-83.9-88-153.8-88-28.5 0-52.4 10.5-71 31.3-44.5 49.7-55.6 159.4-35.1 345.4 28.6 258.6 148.8 350.8 251.7 350.8 38.3 0 65-16 90.9-31.5 34.4-20.6 73.3-44 157.6-44 84.3 0 123.2 23.4 157.6 44 25.8 15.5 52.5 31.5 90.9 31.5 102.9 0 223.1-92.1 251.7-350.8 20.6-186 9.4-295.7-35.1-345.4C958.58 30.82000000000005 934.68 20.32000000000005 906.08 20.32000000000005zM567.68 223.62c47.5 0 98.5-6.3 149.4-51.8 18.7-16.7 34.6-33.3 49.9-49.4 43.7-45.8 77.9-81.7 139-81.7 22.5 0 41.2 8.2 55.8 24.5 40.3 45 49.9 149.7 30 329.5-27.1 245.2-137.3 332.5-231.4 332.5-32.7 0-54.7-13.3-80.3-28.6-36.7-22-78.2-46.9-168.2-46.9-89.9 0-131.5 24.9-168.1 46.9-25.6 15.4-47.7 28.6-80.3 28.6-94.1 0-204.2-87.4-231.4-332.5-19.9-179.8-10.3-284.4 30-329.5 14.5-16.2 33.3-24.5 55.8-24.5 61.1 0 95.3 35.9 138.7 81.3 15.7 16.4 31.6 33.1 50.2 49.7 51 45.5 102 51.8 149.4 51.8 8.2 0 16.2-0.2 23.9-0.4 7.2-0.2 14.2-0.3 20.9-0.3l21.9 0c6.7 0 13.6 0.2 20.8 0.3C551.48 223.41999999999996 559.48 223.62 567.68 223.62zM906.08 52.51999999999998c-56.1 0-88.8 34.3-130.2 77.7-15.6 16.4-31.8 33.3-50.9 50.4-63.6 56.7-129.4 55.6-181.5 54.4-7.1-0.2-14-0.3-20.6-0.3l-21.9 0c-6.6 0-13.5 0.2-20.6 0.3-52.2 1.2-118.4 1.9-181.5-54.4-19.1-17.1-35.3-34-50.9-50.3-41.5-43.5-74.2-77.7-130.2-77.7-19 0-34.8 6.9-47 20.5-37.4 41.8-46.3 146.6-27 320.3 26.3 237.4 130.7 322 219.6 322 29.4 0 50.2-12.5 74.3-26.9 36.1-21.7 81-48.6 174.2-48.6 93.2 0 138.1 26.9 174.2 48.6 24.1 14.5 44.9 26.9 74.3 26.9 89 0 193.4-84.6 219.6-322 19.2-173.8 10.4-278.6-27-320.3C940.88 59.41999999999996 925.08 52.51999999999998 906.08 52.51999999999998zM567.68 255.82000000000005c51.3 0 111.7-7.1 170.9-60 19.8-17.6 36.2-34.9 52.1-51.5 41-43 68-71.3 115.3-71.3 13.3 0 23.4 4.4 31.8 13.7 22.6 25.2 44.7 98.5 21.9 304.4-24.8 224-119.2 303.8-199.3 303.8-23.7 0-40.5-10.1-63.7-24-38.3-23-85.9-51.5-184.8-51.5-98.9 0-146.5 28.6-184.7 51.5-23.3 14-40 24-63.8 24-80.1 0-174.5-79.8-199.3-303.8-22.8-205.9-0.6-279.2 21.9-304.4 8.4-9.4 18.5-13.7 31.8-13.7 47.3 0 74.4 28.4 115.3 71.3 15.9 16.7 32.4 33.9 52.1 51.5 68.5 61.2 139.5 60.9 195.6 59.6 7-0.2 13.7-0.3 20.1-0.3l21.9 0c6.4 0 13.1 0.2 20.1 0.3C550.98 255.72000000000003 559.18 255.82000000000005 567.68 255.82000000000005zM392.192 450.56l-80.896 0 0 80.384c0 17.92-14.336 32.256-32.256 32.256-17.92 0-32.256-14.336-32.256-32.256L246.784 450.56l-80.384 0c-17.92 0-32.256-14.336-32.256-32.256s14.336-32.256 32.256-32.256l80.384 0 0-80.384c0-17.92 14.336-32.256 32.256-32.256 17.92 0 32.256 14.336 32.256 32.256l0 80.384 80.896 0c17.92 0 32.256 14.336 32.256 32.256S410.112 450.56 392.192 450.56zM768.512 466.944c-26.624 0-48.128 21.504-48.128 48.128 0 26.624 21.504 48.128 48.128 48.128 26.624 0 48.128-21.504 48.128-48.128C816.64 488.448 795.136 466.944 768.512 466.944M768.512 321.53599999999994m-48.128 0a9.4 9.4 0 1 1 96.256 0 9.4 9.4 0 1 1-96.256 0ZM865.28 418.304m-48.128 0a9.4 9.4 0 1 1 96.256 0 9.4 9.4 0 1 1-96.256 0ZM671.744 418.304m-48.128 0a9.4 9.4 0 1 1 96.256 0 9.4 9.4 0 1 1-96.256 0Z"  horiz-adv-x="1024" />

    
    <glyph glyph-name="discount" unicode="&#58899;" d="M664.766837 384.182444L554.205488 384.182444 554.205488 349.882884 672.429505 350.491032 647.981946 372.262739ZM321.892861 473.215346l149.117947 0 0-31.623708-149.117947 0 0 31.623708ZM321.892861 553.734173l149.117947 0 0-31.623708-149.117947 0 0 31.623708ZM554.205488 553.734173l150.455874 0 0-31.623708-150.455874 0 0 31.623708ZM554.205488 473.215346l150.455874 0 0-31.623708-150.455874 0 0 31.623708ZM512 881.526072l-431.785248-117.737499L80.214752 292.71695c0-276.342558 431.785248-407.580948 431.785248-407.580948s431.785248 127.71113 431.785248 407.580948L943.785248 763.788573 512 881.526072zM259.861741 115.50255400000003l-76.505048 36.245635c22.379855 41.35408 41.597339 85.140753 57.409193 131.360019l81.856753-30.407412C300.607673 196.872788 279.687374 151.14004 259.861741 115.50255400000003zM656.86091 127.787148c-16.663262-15.203706-43.056895-22.744744-78.816011-22.744744L438.778952 105.04240400000003c-64.220454 0-96.330681 28.339708-96.330681 85.140753l0 85.140753 87.086827 0 0-62.760898c0-22.014966 11.676446-32.961634 35.029338-32.961634l85.748901 0c14.109039 0 26.393633 1.946074 36.975413 5.716593 10.581779 3.892149 17.27141 10.21689 20.312151 18.974225 2.919112 8.757335 6.81126 28.461337 11.433187 59.112009 17.636299-10.581779 45.124599-23.717781 82.464901-39.651265C688.484618 174.97945100000004 673.645801 142.86922400000003 656.86091 127.787148zM767.422259 127.42225900000005c-25.055707 45.732747-49.260007 85.140753-72.612899 118.102387l57.044305 30.407412L732.149661 295.027913l-187.431286-3.648889c14.109039-16.541632 27.001782-32.718375 38.556598-48.530229l-66.044898-46.219266c-17.636299 26.393633-37.583561 53.881934-60.085046 82.464901l16.784891 10.946668-281.451004-2.919112-4.621927 66.653047c85.384012-2.189334 179.768619-3.52726 283.153819-4.013778l0 34.299561L240.036109 384.060815 240.036109 611.143366l230.9747 0 0 31.01556L200.506473 642.1589260000001l0 66.044898 270.625965 0 0 40.259413 83.194679 0 0-40.259413 269.288039 0 0-66.044898L554.205488 642.1589260000001l0-31.01556 232.312626 0 0-227.082551-60.693194 0c38.678228-28.582967 76.991567-58.260601 114.818387-89.154531l-55.09823-40.259413c20.068892-26.880152 38.556598-54.368452 55.828008-82.464901L767.422259 127.42225900000005z"  horiz-adv-x="1024" />

    
    <glyph glyph-name="feedback" unicode="&#58935;" d="M4.537-35.283000000000015l1015.528 0 0-46.16L4.537-81.44299999999998 4.537-35.283000000000015zM189.225 299.063l-0.045-195.866 195.865 0L189.225 299.063zM939.915 658.068L744.05 853.934 221.861 331.701l195.821-195.865L939.915 658.068z"  horiz-adv-x="1024" />

    
    <glyph glyph-name="shopcart" unicode="&#58929;" d="M1000.21217 260.53455499999995L1191.373814 697.768084a24.778989 24.778989 0 0 1-22.730593 34.690585H347.632703L316.642447 876.176808a24.778989 24.778989 0 0 1-24.250371 19.823192H24.778989a24.778989 24.778989 0 1 1 0-49.557979h247.591663l154.554817-716.542298a130.370523 130.370523 0 1 1 157.792605-127.397045A129.181132 129.181132 0 0 1 555.974447 83.249145h284.132412a129.181132 129.181132 0 0 1-28.743627-80.68039 130.436601 130.436601 0 1 1 130.4366 130.436601h-3.17171v0.462541H476.549526v2.048396L452.629541 245.66716099999996h524.852036a24.778989 24.778989 0 0 1 22.730593 14.867394z m-545.864619-338.976576A80.878622 80.878622 0 1 0 535.226173 2.436600999999996a80.944699 80.944699 0 0 0-80.878622-80.878622z m568.264826 80.878622A80.878622 80.878622 0 1 0 941.6016 83.249145a80.944699 80.944699 0 0 0 80.812545-80.812544z m-574.211783 292.788539L358.931922 682.966768h771.849003l-169.488288-387.741628z"  horiz-adv-x="1193" />

    
    <glyph glyph-name="location" unicode="&#59057;" d="M890.332747 517.664934c0-208.932774-378.33275-645.664934-378.33275-645.664934S133.667247 308.732159 133.667247 517.664934C133.667247 726.632449 303.031324 896 511.999997 896 720.932771 896 890.332747 726.632449 890.332747 517.664934M659.52017 527.413223c0 81.475456-66.044718 147.521331-147.520173 147.521331-81.447663 0-147.538702-66.044718-147.538702-147.521331 0-81.475456 66.091039-147.521331 147.538702-147.521331C593.475453 379.89305 659.52017 445.937767 659.52017 527.413223"  horiz-adv-x="1024" />

    
    <glyph glyph-name="hotel" unicode="&#58886;" d="M967.581 389.828c-12.721 1.741-24.576-7.327-26.27-20.167-6.679-50.893-22.27-98.773-44.936-142.267V811.044c0 13.261-10.762 24.024-24.024 24.024h-480.47c-13.261 0-24.024-10.762-24.024-24.024v-120.118c0-13.261 10.762-24.024 24.024-24.024s24.024 10.762 24.024 24.024V787.02h432.422v-612.599c0-5.334 1.79-10.222 4.744-14.21-45.308-57.74-104.851-103.529-172.908-132.357V594.832c0 13.261-10.762 24.024-24.024 24.024h-480.47c-13.261 0-24.024-10.762-24.024-24.024v-408.123c-35.831 53.536-60.106 115.637-68.959 182.926-1.682 12.817-13.453 21.933-26.27 20.167-12.817-1.694-21.85-13.441-20.167-26.27 31.242-237.568 235.767-416.723 475.748-416.723 239.995 0 444.531 179.167 475.737 416.747 1.694 12.817-7.339 24.576-20.156 26.27zM197.81 129.05399999999997a23.942 23.942 0 0 1 1.886 9.333V570.809h432.422v-560.071A430.07 430.07 0 0 0 512-6.366999999999962c-122.471 0-234.685 51.735-314.19 135.42z m456.337-111.229c-0.228-0.084-0.445-0.168-0.684-0.252 0.228 0.108 0.456 0.168 0.684 0.252zM235.731 522.762h72.07v-72.07h-72.07v72.07zM379.871 522.762h72.07v-72.07h-72.07v72.07zM524.011 522.762h72.07v-72.07h-72.07v72.07zM235.731 378.62199999999996h72.07v-72.07h-72.07v72.07zM379.871 378.62199999999996h72.07v-72.07h-72.07v72.07zM524.011 378.62199999999996h72.07v-72.07h-72.07v72.07zM451.941 738.973h72.07v-72.07h-72.07v72.07zM596.083 738.973h72.07v-72.07h-72.07v72.07zM740.223 738.973h72.07v-72.07h-72.07v72.07zM235.731 222.46900000000005h72.07v-72.07h-72.07v72.07zM379.871 222.46900000000005h72.07v-72.07h-72.07v72.07zM524.011 222.46900000000005h72.07v-72.07h-72.07v72.07zM740.223 570.808h72.07v-72.07h-72.07v72.07zM740.223 414.657h72.07v-72.07h-72.07v72.07zM740.223 246.49300000000005h72.07v-72.07h-72.07v72.07z"  horiz-adv-x="1024" />

    
    <glyph glyph-name="search" unicode="&#58891;" d="M943.592727 50.94399999999996l-217.064727 222.766545c-2.513455 2.583273-5.329455 4.538182-7.982545 6.679273a372.829091 372.829091 0 0 1 58.065454 200.587637C776.610909 684.497455 615.889455 849.454545 417.466182 849.454545 219.159273 849.454545 58.321455 684.497455 58.321455 481.000727c0-203.543273 160.861091-368.453818 359.168-368.453818 72.168727 0 139.264 22.016 195.630545 59.648 2.048-2.792727 3.956364-5.562182 6.423273-8.168727l217.111272-222.766546c14.801455-15.150545 34.117818-22.714182 53.457455-22.714181s38.656 7.563636 53.457455 22.714181a79.034182 79.034182 0 0 1 0.023272 109.684364z m-526.126545 177.966545c-135.470545 0-245.736727 113.082182-245.736727 252.090182 0 138.961455 110.266182 252.113455 245.736727 252.113455 135.447273 0 245.736727-113.152 245.736727-252.113455 0-139.008-110.266182-252.090182-245.736727-252.090182z"  horiz-adv-x="1024" />

    
    <glyph glyph-name="footprint" unicode="&#58890;" d="M561.612174 895.999744a511.744 511.744 0 0 1-468.24576-304.231808 25.5872 25.5872 0 0 1 46.568704-20.725632 462.104832 462.104832 0 1 0-38.636672-201.627136h25.5872A23.540224 23.540224 0 0 1 142.493838 409.842944l-51.1744 51.1744a23.540224 23.540224 0 0 1-33.26336 0l-51.1744-51.1744a23.540224 23.540224 0 0 1 16.63168-40.171904h25.5872A511.744 511.744 0 1 1 561.612174 895.999744zM510.693646 611.214208a25.5872 25.5872 0 0 1-25.5872-25.5872v-316.00192a25.5872 25.5872 0 0 1 25.5872-25.5872l215.955968 1.791104a25.5872 25.5872 0 0 1 25.5872 25.5872 25.5872 25.5872 0 0 1-25.5872 25.5872l-190.112896-1.535232V585.6270079999999a25.5872 25.5872 0 0 1-25.843072 25.5872z"  horiz-adv-x="1073" />

    
    <glyph glyph-name="shopcart-empty" unicode="&#58895;" d="M357.28896 368.30208000000005v17.28l79.9232 91.80672a441.94304 441.94304 0 0 0-24.00768-0.72704h-51.2v17.3056h102.6816v-14.08512L396.65152 400.14336l-13.09696-14.5664a344.82176 344.82176 0 0 0 26.83904 1.03936H468.48v-18.31936H357.28896v0.00512zM542.27968 483.4816v19.38944l90.0352 103.41376c-10.19904-0.52736-19.2256-0.80384-27.02848-0.80384h-57.70752V624.9472000000001h115.60448v-15.90272l-76.55424-89.8048-14.78144-16.36352a399.21664 399.21664 0 0 0 30.24896 1.23392h65.38752v-20.66944h-125.20448v0.04096zM752.48128 584.6988799999999v29.09184l134.54848 154.44992c-15.29856-0.80384-28.76928-1.21344-40.43776-1.21344h-86.17984v29.04576h172.76928v-23.68l-114.44736-134.10816-22.08256-24.48896c16.04608 1.18272 31.104 1.77152 45.21472 1.77152h97.67936v-30.8992h-187.06944v0.03072h0.00512zM738.0224 232.09983999999997a27.3408 27.3408 0 0 1 22.528 11.90912l150.95808 220.20608a27.392 27.392 0 0 1 1.69984 28.25728c-4.75136 8.9344-14.47936 18.08896-24.48896 16.44544-5.66272-0.95232-14.55104-8.6528-18.8672-12.78976-9.44128-9.02656-32.73728-43.77088-32.73728-43.77088l-113.52064-165.56032H260.70528v330.5984a27.3664 27.3664 0 0 1-22.0928 26.86464l-163.88096 31.69792c-14.96064 3.03104-29.21984-6.77376-32.04096-21.632a27.25376 27.25376 0 0 1 21.61152-32.01024l141.78816-27.48416v-110.85824c0-0.72704 0.03584-1.44896 0.08192-2.13504a34.10944 34.10944 0 0 1-0.08192-2.1504v-220.25728a27.29472 27.29472 0 0 1 27.31008-27.3408h5.1456l-0.19968-77.68064c-21.77024-16.22016-35.9936-42.4704-35.9936-72.20224 0-49.20832 39.00928-89.21088 86.92224-89.21088 47.89248 0 86.89152 40.00256 86.89152 89.21088 0 12.24192-2.38592 23.93088-6.77376 34.55488h224.55808a90.93632 90.93632 0 0 1-6.76352-34.55488c0-49.20832 38.9888-89.21088 86.8864-89.21088 47.94368 0 86.97344 40.00256 86.97344 89.21088 0 49.19808-39.02976 89.22112-86.97344 89.22112-0.63488 0-1.33632-0.03072-1.98656-0.04096-0.5376 0.04096-1.08032 0.04096-1.60768 0.04096H292.992l0.16896 60.66176h444.86144v0.01024z m-63.94368-115.33824c17.80224 0 32.32256-15.4368 32.32256-34.53952 0-19.05664-14.49472-34.57024-32.32256-34.57024-17.77664 0-32.2816 15.52896-32.2816 34.57024-0.02048 19.06176 14.51008 34.53952 32.2816 34.53952zM321.536 82.22208c0-19.04128-14.51008-34.57024-32.29184-34.57024-17.76128 0-32.27648 15.52896-32.27648 34.57024 0 19.06688 14.49984 34.53952 32.27648 34.53952 17.77664 0 32.29184-15.47776 32.29184-34.53952zM985.10336-46.93503999999996h-170.65984c-5.12 0-8.54016 3.42016-8.54016 8.54016s3.42016 8.52992 8.54016 8.52992h170.65984c5.12 0 8.54016-3.40992 8.54016-8.52992s-4.27008-8.54016-8.54016-8.54016zM788.84352-46.93503999999996h-12.8c-5.12 0-8.54016 3.42016-8.54016 8.54016s3.42016 8.52992 8.54016 8.52992h12.8c5.12 0 8.52992-3.40992 8.52992-8.52992s-4.27008-8.54016-8.52992-8.54016zM739.34336-46.93503999999996h-53.76c-5.12 0-8.52992 3.42016-8.52992 8.54016s3.40992 8.52992 8.52992 8.52992h53.76c5.12 0 8.54016-3.40992 8.54016-8.52992s-3.42016-8.54016-8.54016-8.54016zM630.97344-46.93503999999996H261.48352c-5.12 0-8.53504 3.42016-8.53504 8.54016s3.41504 8.52992 8.53504 8.52992h369.49504c5.12 0 8.52992-3.40992 8.52992-8.52992s-4.26496-8.54016-8.53504-8.54016zM217.10848-46.93503999999996h-166.4c-5.12 0-8.53504 3.42016-8.53504 8.54016s3.41504 8.52992 8.53504 8.52992h166.4c5.12 0 8.53504-3.40992 8.53504-8.52992s-4.27008-8.54016-8.53504-8.54016z"  horiz-adv-x="1024" />

    
    <glyph glyph-name="camera" unicode="&#58902;" d="M884.3 648.6H704.2L679.5 698l-0.2 0.4c-1.9 3.6-3.6 6.9-5.1 9.9-12 23.4-21.5 41.9-54.1 41.9H416.7c-32.9 0-43.7-21.3-55.1-43.8-1.3-2.6-2.7-5.3-4.2-8.1l-24.8-49.7H152.4c-34 0-61.7-27.7-61.7-61.7v-488c0-34 27.7-61.7 61.7-61.7h731.9c34 0 61.7 27.7 61.7 61.7v488c0 34-27.7 61.7-61.7 61.7zM904 98.89999999999998c0-10.8-8.8-19.7-19.7-19.7H152.4c-10.8 0-19.7 8.8-19.7 19.7v488c0 10.8 8.8 19.7 19.7 19.7h206.1l36.2 72.5c1.5 2.9 2.9 5.7 4.3 8.3 10.6 20.8 11.1 20.8 17.7 20.8H620c4.6 0 5.8-0.6 5.8-0.6 2-1.2 7.2-11.2 10.9-18.5 1.6-3.1 3.3-6.5 5.3-10.1l36.2-72.4h206.1c10.8 0 19.7-8.8 19.7-19.7v-488zM525.5 565.5c-123.5 0-223.6-100.1-223.6-223.6S402 118.20000000000005 525.5 118.20000000000005s223.7 100.1 223.7 223.7c0 123.5-100.2 223.6-223.7 223.6z m0-402.5c-98.8 0-178.9 80.1-178.9 178.9 0 98.8 80.1 178.9 178.9 178.9 98.8 0 178.9-80.1 178.9-178.9 0-98.8-80.1-178.9-178.9-178.9z m246 402.5v-44.7H861v44.7h-89.5z"  horiz-adv-x="1024" />

    
    <glyph glyph-name="financing" unicode="&#58884;" d="M560.208 506.414c102.627 0 186.083 83.478 186.083 186.073s-83.456 186.061-186.083 186.061-186.049-83.478-186.049-186.061 83.468-186.073 186.049-186.073zM560.208 844.186c83.661 0 151.723-68.05 151.723-151.7s-68.062-151.711-151.723-151.711-151.689 68.062-151.689 151.711 68.062 151.7 151.689 151.7zM1005.136 420.693c-2.353 1.286-5.154 2.044-8.133 2.044-6.48 0-12.122-3.582-15.056-8.874-8.225-15.072-26.942-30.022-46.693-34.983 11.378 19.001 16.645 39.663 11.037 60.95-7.748 29.582-30.435 53.68-56.479 60.075-17.067 4.176-32.995 0-43.532-11.559s-19.57-34.521-3.925-79.645c8.09-23.335 19.342-38.514 31.107-48.321-12.709-10.672-26.954-19.741-41.028-27.694-19.046 59.449-57.059 110.706-112.845 149.516-2.734 1.919-6.131 3.067-9.796 3.067-9.489 0-17.181-7.693-17.181-17.181 0-5.823 2.898-10.971 7.329-14.078 81.588-56.732 120.921-143.271 110.919-242.951-5.761-37.68-19.426-71.345-39.276-100.457 11.979 19.598 11.22 16.797 11.22 13.82 0-0.651 0.036-1.294 0.107-1.926l18.789-171.727c0-10.991-26.885-26.749-45.636-26.749h-29.73c-14.791 0-26.749 12.003-26.919 29.252l-7.555 51.427c-1.269 8.357-8.404 14.688-17.018 14.688-2.895 0-5.621-0.715-8.016-1.978-49.844-25.895-171.711-30.549-223.344 0.41-2.528 1.548-5.587 2.463-8.861 2.463-8.795 0-16.045-6.612-17.05-15.137l-5.913-54.295c0-12.959-4.198-17.067-5.575-18.42-9.33-9.204-34.202-8.795-56.081-8.477l-13.79 0.148c-14.734 0-26.715 12.003-26.954 23.893l18.898 113.413c0.151 0.857 0.239 1.842 0.239 2.848 0 4.793-1.967 9.126-5.139 12.236-3.121 3.041-7.388 4.915-12.091 4.915-1.1 0-2.177-0.102-3.22-0.298-62.379-11.645-126.345 11.054-166.519 59.421-2.634 3.161-6.343 5.347-10.559 5.998l-61.85 16.962c-12.925 3.562-13.426 3.686-18.489 47.923-1.582 13.915-3.562 31.027-6.508 49.721 0 3.948 8.351 6.827 13.517 8.409l45.443 18.102c5.034 2.044 8.813 6.262 10.212 11.457 19.689 55.671 70.262 97.838 131.6 108.726 8.116 1.479 14.188 8.495 14.188 16.928 0 2.895-0.716 5.621-1.979 8.016l-55.364 106.243c0.398 2.548 1.514 2.685 3.618 2.935 34.93 4.676 129.468-64.205 140.276-108.157 1.905-7.556 8.64-13.06 16.661-13.06 4.567 0 8.717 1.785 11.791 4.693 31.786 30.202 71.455 52.421 115.597 63.254-53.187-19.305-49.667-13.706-49.667-7.285 0 9.494-7.697 17.191-17.191 17.191-2.797 0-5.437-0.668-7.771-1.853-41.198-22.012-75.458-52.161-101.615-88.53 23.046 112.15-65.313 173.193-112.292 167.924-21.345-2.582-34.133-17.852-34.133-40.858 0-0.005 0-0.013 0-0.02 0-2.903 0.72-5.638 1.991-8.037l47.309-90.781c-60.711-17.749-110.102-61.827-133.12-119.671l-36.852-14.791c-31.858-9.33-36.682-29.582-36.477-43.372 3.05-20.753 4.972-37.547 6.542-51.109 5.302-46.205 7.714-67.299 43.532-77.153l58.778-15.986c38.329-43.428 94.119-70.675 156.275-70.675 5.506 0 10.961 0.214 16.359 0.634l-16.086-93.456c0.027-33.728 27.351-61.065 61.071-61.11l13.26-0.137c4.699-0.08 9.398-0.148 14.063-0.148 25.373 0 50.062 2.185 66.685 18.478 10.467 10.342 15.804 24.781 15.713 41.028l3.152 28.57c59.767-21.902 154.134-19.217 212.025 0.455l4.096-27.136c0.046-33.731 27.378-61.065 61.105-61.11h29.734c32.222 0 80.009 25.657 79.906 62.976l-18.318 168.391c17.217 33.02 28.076 71.844 29.93 113.012-1.585-17.677-0.993-6.469-0.993 4.876 0 20.797-1.989 41.127-5.786 60.815 20.961 8.895 45.481 24.767 66.075 44.394 4.109-0.864 8.848-1.382 13.701-1.433 36.509-3.095 75.899 25.679 91.509 54.556 1.324 2.377 2.101 5.215 2.101 8.233 0 6.512-3.622 12.178-8.963 15.091zM897.877 384.842c-9.626 6.975-17.351 18.705-23.018 35.101-9.023 26.044-7.35 40.653-3.152 45.249 1.28 1.21 3.013 1.953 4.917 1.953 0.183 0 0.365-0.006 0.545-0.02 1.659-0.025 3.275-0.262 4.813-0.685 11.002-2.727 25.792-15.004 31.106-35.347 3.823-14.631-2.867-30.742-15.212-46.262zM203.037 291.58900000000006c-2.975-3.162-4.812-7.426-4.836-12.118-0.001 0.001-0.002-0.106-0.002-0.214 0-4.682 1.843-8.933 4.845-12.068 3.196-2.976 7.505-4.807 12.241-4.807 0.038 0 0.076 0 0.115 0 0.021 0 0.053 0 0.085 0 4.644 0 8.861 1.834 11.963 4.818 3.11 3.315 5.052 7.772 5.134 12.682-0.086 4.438-2.073 8.719-5.234 11.798-6.449 6.428-17.087 6.428-24.313-0.092zM541.957 607.9259999999999v-5.211c0-9.488 7.693-17.181 17.181-17.181s17.181 7.693 17.181 17.181v5.222c23.893 6.736 41.45 26.817 41.45 50.779 0 37.012-40.505 48.833-53.475 52.622-25.873 8.101-29.366 14.563-29.366 19.831 0 10.32 11.105 19.024 24.235 19.024 9.102 0 17.386-4.005 21.618-10.457 3.105-4.772 8.413-7.882 14.446-7.882 9.488 0 17.181 7.693 17.181 17.181 0 3.523-1.06 6.799-2.881 9.525-7.436 11.383-19.473 19.53-33.149 23.398v5.211c0 9.488-7.693 17.181-17.181 17.181s-17.181-7.693-17.181-17.181c0 0 0 0 0 0v-5.234c-23.893-6.736-41.415-26.817-41.415-50.779 0-35.897 37.456-47.628 53.794-52.724 29.059-8.487 29.059-16.953 29.059-19.729 0-10.32-11.105-19.024-24.269-19.024-9.933 0-25.941 6.895-35.669 15.348-2.999 2.622-6.95 4.22-11.276 4.22-9.485 0-17.173-7.69-17.173-17.173 0-5.159 2.275-9.789 5.877-12.937 11.33-9.916 26.599-17.493 41.014-21.214z"  horiz-adv-x="1024" />

    
    <glyph glyph-name="train-ticket" unicode="&#58955;" d="M573.61 346.80100000000004c-5.59 32.236 5.61 103.02 5.61 103.02 168.077-26.346 338.097-38.992 413.165-41.627v80.715c-209.728 22.007-383.709 140.329-383.709 140.329-107.23 83.399-229.872 65.17-229.872 65.17-49.063-2.099-98.114-18.925-137.355-52.553-52.566-44.159-100.215-103.729-140.871-161.188C52.223 412.69 31.907 339.1 73.247 260.59400000000005c13.324-25.208 30.846-48.356 49.063-68.673 4.21-4.893 19.621-25.929 26.625-25.929-31.53-17.508-78.482-44.854-119.127-74.284h93.905s60.974 39.937 122.642 72.175c40.645-0.672 86.902-1.393 125.437-2.783-26.625-17.533-83.389-53.968-125.437-88.316h93.21s175.193 112.83 320.251 138.063l-14.703-2.111c194.663 47.958 299.412 65.64 347.273 72.083v99.167c-138.157-10.732-418.776-33.185-418.776-33.185z m-426.079 18.925c-32.237 0-58.166 14.728-58.166 32.944 0 18.218 25.928 32.933 58.166 32.933s58.167-14.715 58.167-32.933c0-18.217-25.929-32.944-58.167-32.944z m165.396 176.609l-117.736 5.601s53.262 70.087 70.076 74.285l72.188-1.403-24.528-78.483z m52.555 76.383l101.616-2.806 0.708-79.19-121.947 4.209 19.623 77.787z m54.663-252.992c-32.236 0-58.165 14.728-58.165 32.944 0 18.218 25.928 32.933 58.165 32.933 32.239 0 58.167-14.715 58.167-32.933 0-18.217-25.929-32.944-58.167-32.944z"  horiz-adv-x="1024" />

    
    <glyph glyph-name="arrow-up" unicode="&#58901;" d="M903.845 213.024l-391.905 391.263-17.695-18.169-375.703-375.085 47.199-47.199 347.05 346.48 345.071-344.489 45.984 47.199z"  horiz-adv-x="1024" />

    
    <glyph glyph-name="arrow-down" unicode="&#58896;" d="M832.453 566.475l58.261-56.285-392.021-393.996-392.021 393.996 58.261 56.285 333.761-331.786z"  horiz-adv-x="1024" />

    
    <glyph glyph-name="arrow-right" unicode="&#58898;" d="M329.525 704.453l56.285 58.261 393.996-392.021-393.996-392.021-56.285 58.261 331.786 333.761z"  horiz-adv-x="1024" />

    
    <glyph glyph-name="news" unicode="&#58967;" d="M524.5 708.2c120.9 0 219.2-104 219.2-231.9v-26.9c0-127.8-98.4-231.9-219.2-231.9h-51.6c-89.1 0-119-72.8-136.8-116.3-1.6-3.9-3.4-8.4-5.2-12.6-6 8.5-13.2 19.9-19 29.2-11.5 18.2-24.5 38.9-39.7 58.6-36.1 47-80.3 84.7-82.2 86.2l-3.7 3.3-4.9 2.1c-3.3 1.6-80.7 39.5-80.7 181.4v26.9c0 127.8 98.4 231.9 219.2 231.9h204.6z m0 36.6H319.8C178.5 744.8 64 624.6 64 476.3v-26.9C64 279 166.3 234.70000000000005 166.3 234.70000000000005s42.7-36.1 76.7-80.5c33.5-43.7 58.1-95.5 76.7-107.4 5.9-3.8 11.1-5.4 15.5-5.4 40.9 0 32.6 139.7 137.5 139.7h51.5c141.2 0 255.8 120.2 255.8 268.5v26.9c0.3 148.1-114.3 268.3-255.5 268.3M814 452.1c-9.3 0-17.4-7-18.3-16.5-1-10.1 6.3-19 16.4-20.1 65.7-6.6 111.6-59.1 111.6-127.7v-14.7c-1.5-75.2-48.6-105.2-50.5-106.4l-2.2-1.6c-1.1-0.9-26.6-22-47.3-48.5-8.7-11.1-16.2-22.7-22.9-33.1-4.7-7.1-10.6-16.4-14.1-21.1-1.7 3.5-3.8 8.2-5.4 12.1-10.1 24.1-27 64.3-76.9 64.3H670c-31.4 0-45 0.6-64 16.4-3.4 2.8-7.6 4.2-11.6 4.2-5.2 0-10.5-2.2-14.2-6.7-6.4-7.8-5.3-19.3 2.5-25.7 30-24.7 55.3-24.7 87.3-24.7h34.4c23.6 0 32.3-16.6 42.9-41.8 7.4-17.5 15.6-37.3 37-37.3 6.1 0 12.4 1.9 18.6 5.8 9.8 6 17.6 18.1 28.3 34.8 6.2 9.6 13.3 20.6 21 30.3 16.4 20.9 36.8 38.6 41 42.2 10 6.6 65.1 46.9 66.8 136.5V288c0 88-59.5 155.5-144.5 164-0.3 0.1-0.9 0.1-1.5 0.1zM422.1 304.70000000000005c-92.9 0-168.5 60.7-168.5 135.5 0 10.1 8.1 18.3 18.3 18.3 10.1 0 18.3-8.1 18.3-18.3 0-54.5 59.2-98.8 131.9-98.8S554 385.7 554 440.2c0 10.1 8.1 18.3 18.3 18.3 10.2 0 18.3-8.1 18.3-18.3 0-74.8-75.5-135.5-168.5-135.5z"  horiz-adv-x="1024" />

    
    <glyph glyph-name="member" unicode="&#58975;" d="M916.166-23.024c0-22.392-18.17-40.056-40.582-40.564-33.866-0.768-41.739 41.071-41.739 41.071C814.62 134.635 683.265 256.89 522.054 262.02c-3.467-0.145-6.896-0.508-10.406-0.508-3.506 0-6.895 0.388-10.362 0.508-161.169-5.173-292.485-127.385-311.73-284.536 0 0-4.424-41.071-41.534-41.071-22.392 0-40.564 18.17-40.564 40.564 0 0 0.731 14.215 2.598 18.9 20.379 142.008 113.753 260.302 241.254 315.202-74.894 51.248-124.117 137.323-124.117 234.906 0 157.118 127.342 284.48 284.436 284.48 157.116 0 284.478-127.38 284.478-284.48 0-97.565-49.204-183.6-124.059-234.868 128.7-55.383 222.76-175.384 241.947-319.195 1.034-3.568 1.765-7.257 1.765-11.173l0.406-3.772zM714.782 545.887c0 112.231-90.942 203.188-203.192 203.188-112.212 0-203.192-90.957-203.192-203.188 0-112.217 90.98-203.211 203.192-203.211 112.25 0.02 203.192 91.02 203.192 203.211z m0 0"  horiz-adv-x="1024" />

    
    <glyph glyph-name="arrow-left" unicode="&#58900;" d="M690.7650000000002-34.05399999999986l59.96799999999998 59.373000000000005-356.8100000000001 359.25699999999995 359.8089999999999 356.23300000000006-59.46000000000002 59.86799999999999-419.76999999999987-415.61000000000007z"  horiz-adv-x="1024" />

    
    <glyph glyph-name="lous" unicode="&#58914;" d="M794.283008 871.424H477.683712c-21.274624 0-35.70688-6.18496-44.104704-18.904064L105.986048 474.344448l-0.248832-0.28672-0.202752-0.320512c-1.035264-1.629184-2.256896-3.289088-3.550208-5.047296-4.125696-5.6064-8.800256-11.96032-8.800256-19.712v-485.018624C93.184-78.59199999999998 126.029824-95.23199999999997 154.841088-95.23199999999997h677.89312c28.08832 0 42.785792 29.776896 42.785792 59.191296v811.55072C875.52 838.315008 846.848 871.424 794.283008 871.424zM414.802944 750.9268480000001l-72.8064-345.419776c-12.520448 12.607488-37.064704 33.087488-67.702784 44.596224-37.397504 14.04928-71.066624 16.739328-91.369472 16.739328-2.787328 0-5.322752-0.050176-7.580672-0.129024l239.459328 284.213248z m406.514688-794.458112c-0.319488-0.3328-0.945152-0.500736-1.861632-0.500736H154.841088c-6.651904 0-8.409088 5.226496-8.409088 7.991296V417.016832c17.449984-0.219136 75.21792-1.846272 102.536192-13.63456 31.68256-13.673472 95.074304-67.577856 95.710208-68.120576l0.613376-0.523264 0.744448-0.309248c3.692544-1.534976 8.564736-2.07872 11.614208-2.07872 4.375552 0 9.1136 1.055744 12.672 2.823168 1.065984 0.528384 2.10944 0.976896 3.11808 1.411072 4.385792 1.885184 9.356288 4.023296 10.906624 11.37664L485.151744 820.224h291.382272c40.96 0 45.737984-22.868992 45.737984-48.811008v-807.453696c0-0.274432 0.013312-0.638976 0.03072-1.076224 0.053248-1.276928 0.216064-5.161984-0.985088-6.414336zM687.000576 552.96h-79.15008L492.07808 337.933312 389.608448 527.617024l-35.77344-75.415552L434.325504 310.27200000000005H338.944v-45.056h118.784v-54.272H338.944v-44.032h118.784v-105.472h69.632V166.91200000000003h117.76v44.032H527.36v54.272h117.76v45.056h-95.291392z"  horiz-adv-x="1024" />

    


  </font>
</defs>
</svg>
